<svg width="112" height="152" viewBox="0 0 112 152" fill="none" xmlns="http://www.w3.org/2000/svg">
<path d="M56.2382 64.3391C56.2382 55.1265 63.7064 47.6582 72.919 47.6582H112V57.1901C112 61.1384 108.799 64.3391 104.851 64.3391H71.9658V95.3178H112V104.85C112 108.798 108.799 111.999 104.851 111.999H72.919C63.7064 111.999 56.2382 104.53 56.2382 95.3178V64.3391Z" fill="black"/>
<path d="M72.919 0C63.7064 0 56.2382 7.46827 56.2382 16.6808V40.5106H64.8169C68.7651 40.5106 71.9658 37.3099 71.9658 33.3617V16.6808H104.851C108.799 16.6808 112 13.4802 112 9.53191V0H72.919Z" fill="black"/>
<path d="M0 102.468C0 98.5195 3.20069 95.3188 7.14894 95.3188H47.6596V104.851C47.6596 108.799 44.4589 112 40.5106 112H0V102.468Z" fill="#F8D731"/>
<path d="M0 54.8071C0 50.8589 3.20069 47.6582 7.14894 47.6582H47.6596V57.1901C47.6596 61.1384 44.4589 64.3391 40.5106 64.3391H0V54.8071Z" fill="#F8D731"/>
<path d="M0 7.14893C0 3.20069 3.20069 0 7.14894 0H47.6596V9.53191C47.6596 13.4802 44.4589 16.6808 40.5106 16.6808H0V7.14893Z" fill="#F8D731"/>
<path d="M12.4031 147.476C12.4031 148.887 11.9685 149.996 11.0992 150.804C10.2299 151.601 9.0585 152 7.58497 152H0V140V128H7.58497C9.0585 128 10.2299 128.409 11.0992 129.227C11.9685 130.035 12.4031 131.144 12.4031 132.555V147.476ZM8.66627 146.878V133.091C8.66627 131.752 7.9401 131.082 6.48778 131.082H3.72093V148.918H6.39237C7.9083 148.918 8.66627 148.238 8.66627 146.878Z" fill="black"/>
<path d="M32.4561 152H22.136V128H32.3606V131.174H25.857V138.183H31.4543V141.296H25.857V148.826H32.4561V152Z" fill="black"/>
<path d="M53.7811 149.807C53.7811 151.269 53.0285 152 51.5231 152H44.0336C42.5388 152 41.7915 151.269 41.7915 149.807V144.087H45.5124V148.979H50.0602V144.271L42.6024 137.462C42.0618 136.961 41.7915 136.322 41.7915 135.545V130.208C41.7915 128.736 42.5388 128 44.0336 128H51.5231C53.0285 128 53.7811 128.726 53.7811 130.178V135.545H50.0602V131.021H45.5124V135.361L52.9701 142.139C53.5108 142.63 53.7811 143.279 53.7811 144.087V149.807Z" fill="black"/>
<path d="M67.3622 152H63.6413V128H67.3622V152Z" fill="black"/>
<path d="M89.5618 149.807C89.5618 151.269 88.8039 152 87.2879 152H79.4644C77.9909 152 77.2541 151.269 77.2541 149.807V130.208C77.2541 128.736 78.0068 128 79.5121 128H87.2879C88.8039 128 89.5618 128.736 89.5618 130.208V135.33H85.825V131.082H80.9751V148.918H85.825V142.201H83.0582V139.149H89.5618V149.807Z" fill="black"/>
<path d="M112 152H108.74L102.777 136.895C102.936 137.631 103.016 138.208 103.016 138.627V152H99.3902V128H102.65L108.613 142.799C108.454 142.063 108.374 141.485 108.374 141.066V128H112V152Z" fill="black"/>
</svg>
